<svg xmlns="http://www.w3.org/2000/svg" width="28" height="28" viewBox="0 0 39.803 39.803">
  <g id="a" transform="translate(-1333 -120)">
    <g id="a-2" data-name="a" transform="translate(1333 120)">
      <path id="a-3" data-name="a" d="M51.9,71.8A19.9,19.9,0,1,1,71.8,51.9,19.9,19.9,0,0,1,51.9,71.8Zm0-2.654A17.248,17.248,0,1,0,34.654,51.9,17.247,17.247,0,0,0,51.9,69.149Z" transform="translate(-32 -32)" fill="#fff"/>
    </g>
    <g id="a-4" data-name="a" transform="translate(1343 128)">
      <path id="a-5" data-name="a" d="M173.955,0h1.4V12.56h-1.4Zm-6.978,0h1.4V2.791h-1.4Zm6.978,16.049h1.4v6.28h-1.4ZM166.978,6.28h1.4V22.328h-1.4ZM160,0h1.4V15.351H160Zm0,18.84h1.4v3.489H160Z" transform="translate(-157.907)" fill="#fff"/>
      <path id="a-6" data-name="a" d="M80.746,110.653a2.791,2.791,0,1,1,2.791-2.791A2.791,2.791,0,0,1,80.746,110.653Zm0-4.187a1.4,1.4,0,1,0,1.4,1.4A1.4,1.4,0,0,0,80.746,106.466Zm-6.978-4.884a2.791,2.791,0,1,1,2.791-2.791A2.791,2.791,0,0,1,73.769,101.582Zm0-4.187a1.4,1.4,0,1,0,1.4,1.4A1.4,1.4,0,0,0,73.769,97.4Zm-6.978,16.049a2.791,2.791,0,1,1,2.791-2.791A2.791,2.791,0,0,1,66.791,113.444Zm0-4.187a1.4,1.4,0,1,0,1.4,1.4A1.4,1.4,0,0,0,66.791,109.258Z" transform="translate(-64 -93.907)" fill="#fff"/>
    </g>
  </g>
</svg>
