<svg xmlns="http://www.w3.org/2000/svg" width="29.241" height="32.415" viewBox="0 0 29.241 32.415">
  <path id="ACTIVITY" d="M151.992,117.194a11.8,11.8,0,0,1-5.186-1.366,15.714,15.714,0,0,0-4.917-1.127,15.616,15.616,0,0,0-4.974,1.151,1.245,1.245,0,0,1-1.727-1.151V98.493a1.247,1.247,0,0,1,.776-1.154A19.064,19.064,0,0,1,142.018,96a16.707,16.707,0,0,1,5.831,1.354,1.148,1.148,0,0,1,.135.07,8.687,8.687,0,0,0,3.9,1.07,8.346,8.346,0,0,0,3.844-1.065,1.25,1.25,0,1,1,1.9,1.065V114.7a1.249,1.249,0,0,1-.569,1.046A10.154,10.154,0,0,1,151.992,117.194Zm-10.1-4.987a18.274,18.274,0,0,1,5.934,1.343,1.19,1.19,0,0,1,.138.069,9.386,9.386,0,0,0,4.031,1.082,7.6,7.6,0,0,0,3.143-.746V100.415a10.094,10.094,0,0,1-3.246.572,11.154,11.154,0,0,1-5.1-1.376,14.168,14.168,0,0,0-4.766-1.117,14.9,14.9,0,0,0-4.337.873v13.577A15.2,15.2,0,0,1,141.888,112.207Zm3.273,16.207H131.447V97.247a1.247,1.247,0,1,1,2.493,0v28.675h11.221a1.247,1.247,0,0,1,0,2.493Zm-12.467,0h-2.455a1.247,1.247,0,0,1,0-2.493h2.455a1.247,1.247,0,1,1,0,2.493Z" transform="translate(-128.992 -96)" fill="#78de32"/>
</svg>
