<svg xmlns="http://www.w3.org/2000/svg" width="36" height="36" viewBox="0 0 36 36">
  <g id="Breathing_Rate" data-name="Breathing Rate" transform="translate(-6495.099 -1818)">
    <g id="a" transform="translate(136.099 219)">
      <g id="a-2" data-name="a" transform="translate(6364 1607)">
        <path id="a-3" data-name="a" d="M118.152,213.381c-.185,0-.388-.017-.59-.034a8.478,8.478,0,0,1-7.6-8.124c0-.725-.051-1.686-.1-2.461-.034-.59-.067-1.079-.067-1.4a7.237,7.237,0,0,1,.691-2.41c.438-1.045,1.163-2.461,2.444-2.764,1.3-.3,2.613.657,3.489,1.416,3.86,3.3,5.326,7.686,4.517,13.4a2.548,2.548,0,0,1-2.781,2.377Zm-4.7-15.912a.82.82,0,0,0-.2.017q-.759.177-1.517,1.972v.017a6.889,6.889,0,0,0-.573,1.888c0,.27.034.758.067,1.315.051.792.118,1.787.1,2.562a7.115,7.115,0,0,0,6.405,6.776c1.5.185,1.8-.539,1.888-1.2.742-5.293-.539-9.169-4.062-12.186A3.835,3.835,0,0,0,113.449,197.469ZM97.218,213.381A2.583,2.583,0,0,1,94.42,211c-.809-5.714.674-10.1,4.517-13.4.876-.758,2.191-1.719,3.489-1.416,1.281.3,2.006,1.719,2.444,2.764a7.888,7.888,0,0,1,.691,2.427c0,.3-.034.809-.067,1.4-.051.775-.1,1.736-.1,2.461a8.491,8.491,0,0,1-7.6,8.124C97.605,213.364,97.4,213.381,97.218,213.381Zm4.7-15.912a3.893,3.893,0,0,0-2.107,1.146c-3.523,3.034-4.821,6.894-4.062,12.186.084.657.388,1.382,1.888,1.2a7.115,7.115,0,0,0,6.405-6.776c0-.775.051-1.77.1-2.562.034-.556.067-1.045.067-1.315a6.889,6.889,0,0,0-.573-1.888v-.017c-.506-1.18-1.011-1.854-1.517-1.972Zm5.765,1.433a.676.676,0,0,1-.674-.674v-4.77a.674.674,0,0,1,1.348,0v4.77A.676.676,0,0,1,107.685,198.9Z" transform="translate(-94.206 -192.784)" fill="#78de32"/>
        <path id="a-4" data-name="a" d="M118.152,213.581c-.193,0-.4-.017-.605-.034h-.009a8.69,8.69,0,0,1-7.778-8.324c0-.746-.055-1.742-.1-2.447-.007-.12-.014-.235-.02-.345-.026-.432-.048-.806-.048-1.067a7.791,7.791,0,0,1,.708-2.49c.454-1.082,1.215-2.555,2.581-2.879a2.424,2.424,0,0,1,.551-.063,5.221,5.221,0,0,1,3.115,1.522c3.905,3.342,5.4,7.784,4.584,13.579a2.756,2.756,0,0,1-2.979,2.549Zm-.569-.433c.194.016.394.033.569.033a2.362,2.362,0,0,0,2.583-2.2c.8-5.651-.655-9.975-4.449-13.222a4.877,4.877,0,0,0-2.854-1.425,2.022,2.022,0,0,0-.46.052c-1.189.282-1.885,1.646-2.305,2.647l0,.006a7.145,7.145,0,0,0-.673,2.327c0,.25.022.618.047,1.044q.01.165.02.344c.046.709.1,1.715.1,2.472A8.286,8.286,0,0,0,117.583,213.148Zm-20.365.433a2.785,2.785,0,0,1-3-2.548c-.819-5.782.681-10.224,4.585-13.58a5.22,5.22,0,0,1,3.114-1.522,2.422,2.422,0,0,1,.551.063c1.368.324,2.129,1.8,2.583,2.882a7.385,7.385,0,0,1,.707,2.5c0,.253-.023.642-.049,1.093l-.018.317c-.046.706-.1,1.7-.1,2.449a8.69,8.69,0,0,1-7.778,8.323h-.024c-.088,0-.18,0-.278.008S97.315,213.581,97.218,213.581Zm4.7-17.25a4.876,4.876,0,0,0-2.853,1.425c-3.793,3.26-5.248,7.585-4.45,13.221a2.39,2.39,0,0,0,2.6,2.2c.088,0,.18,0,.278-.008s.19-.008.283-.009a8.285,8.285,0,0,0,7.414-7.924c0-.759.055-1.764.1-2.475l.018-.316c.026-.444.049-.828.049-1.07a7.179,7.179,0,0,0-.676-2.35c-.42-1-1.116-2.365-2.306-2.647A2.02,2.02,0,0,0,101.921,196.331Zm16.256,15.914h0a3.864,3.864,0,0,1-.47-.031,7.311,7.311,0,0,1-6.581-6.975c.016-.73-.044-1.668-.093-2.423l-.025-.4c-.027-.439-.051-.819-.051-1.048a7.038,7.038,0,0,1,.573-1.928v-.018l.016-.037c.537-1.271,1.079-1.954,1.656-2.089a.992.992,0,0,1,.248-.022,3.935,3.935,0,0,1,2.238,1.212c3.57,3.058,4.883,6.987,4.129,12.365A1.452,1.452,0,0,1,118.177,212.245ZM111.93,199.5v.016l-.015.037a6.6,6.6,0,0,0-.558,1.811c0,.217.023.591.05,1.024l.025.4c.049.762.11,1.71.093,2.454a6.906,6.906,0,0,0,6.229,6.573,3.47,3.47,0,0,0,.422.028c.974,0,1.174-.505,1.244-1.052.733-5.232-.536-9.048-3.994-12.009-1.062-.922-1.661-1.115-1.977-1.115a.66.66,0,0,0-.154.011C112.995,197.751,112.517,198.123,111.93,199.5ZM97.193,212.228h0a1.453,1.453,0,0,1-1.64-1.4c-.766-5.347.546-9.277,4.13-12.363a4,4,0,0,1,2.237-1.195h.225l.022.005c.569.133,1.11.816,1.655,2.088l.016.038v.018a7.037,7.037,0,0,1,.573,1.928c0,.23-.023.609-.051,1.048l-.017.279c-.046.721-.1,1.747-.1,2.55a7.311,7.311,0,0,1-6.581,6.974A3.86,3.86,0,0,1,97.193,212.228Zm4.727-14.559c-.312,0-.908.191-1.977,1.1-3.47,2.988-4.739,6.8-3.994,12.006.07.549.27,1.055,1.244,1.055h0a3.462,3.462,0,0,0,.421-.028,6.907,6.907,0,0,0,6.23-6.576c0-.814.055-1.85.1-2.576l.017-.279c.027-.432.05-.806.05-1.023a6.6,6.6,0,0,0-.558-1.811l-.015-.037v-.016c-.582-1.346-1.048-1.732-1.342-1.813Zm5.765,1.433a.875.875,0,0,1-.874-.874v-4.77a.874.874,0,0,1,1.748,0v4.77A.875.875,0,0,1,107.685,199.1Zm0-6.118a.475.475,0,0,0-.474.474v4.77a.474.474,0,1,0,.948,0v-4.77A.475.475,0,0,0,107.685,192.984Z" transform="translate(-94.206 -192.784)" fill="#78de32"/>
        <path id="a-5" data-name="a" d="M405.572,344.21a.683.683,0,0,1-.472-1.163l2.731-2.731a.679.679,0,1,1,.961.961l-2.747,2.747A.725.725,0,0,1,405.572,344.21Z" transform="translate(-394.874 -335.361)" fill="#78de32"/>
        <path id="a-6" data-name="a" d="M405.572,344.41a.865.865,0,0,1-.613-.261.872.872,0,0,1,0-1.244l2.731-2.731a.879.879,0,1,1,1.244,1.244l-2.757,2.757A.922.922,0,0,1,405.572,344.41Zm2.739-4.1a.478.478,0,0,0-.339.144l-2.731,2.731a.472.472,0,0,0,0,.678.468.468,0,0,0,.331.144.521.521,0,0,0,.336-.132l2.742-2.742a.483.483,0,0,0-.339-.822Z" transform="translate(-394.874 -335.361)" fill="#78de32"/>
        <path id="a-7" data-name="a" d="M495.569,344.21a.665.665,0,0,1-.472-.2l-2.747-2.731a.679.679,0,0,1,.961-.961l2.731,2.731a.672.672,0,0,1,0,.961A.638.638,0,0,1,495.569,344.21Z" transform="translate(-479.308 -335.361)" fill="#78de32"/>
        <path id="a-8" data-name="a" d="M495.569,344.41a.865.865,0,0,1-.613-.261l-2.747-2.73a.879.879,0,1,1,1.243-1.244l2.731,2.731a.871.871,0,0,1,0,1.239A.834.834,0,0,1,495.569,344.41Zm-2.739-4.1a.483.483,0,0,0-.339.822l2.747,2.73a.469.469,0,0,0,.331.144.441.441,0,0,0,.321-.134l.009-.01a.472.472,0,0,0,0-.678l-2.731-2.731A.478.478,0,0,0,492.83,340.314Z" transform="translate(-479.308 -335.361)" fill="#78de32"/>
      </g>
      <path id="a-9" data-name="a" d="M2,.6A1.4,1.4,0,0,0,.6,2V34A1.4,1.4,0,0,0,2,35.4H34A1.4,1.4,0,0,0,35.4,34V2A1.4,1.4,0,0,0,34,.6H2M2,0H34a2,2,0,0,1,2,2V34a2,2,0,0,1-2,2H2a2,2,0,0,1-2-2V2A2,2,0,0,1,2,0Z" transform="translate(6359 1599)" fill="#78de32"/>
    </g>
  </g>
</svg>
