<svg xmlns="http://www.w3.org/2000/svg" width="36" height="36" viewBox="0 0 36 36">
  <g id="Core_Temperature" data-name="Core Temperature" transform="translate(-6495.099 -1868)">
    <g id="a" transform="translate(69.099 269)">
      <g id="a-2" data-name="a" transform="translate(6438 1605)">
        <path id="a-3" data-name="a" d="M448.014,61.7a.513.513,0,0,0,.512-.512V47.023h2.983v14.16a.512.512,0,0,0,1.023,0V46.512A.513.513,0,0,0,452.02,46h-4.009a.513.513,0,0,0-.512.512V61.184A.515.515,0,0,0,448.014,61.7Z" transform="translate(-444.83 -46)" fill="#78de32"/>
        <path id="a-4" data-name="a" d="M452.02,61.845a.662.662,0,0,1-.662-.662V47.173h-2.683v14.01a.663.663,0,0,1-1.326,0V46.512a.662.662,0,0,1,.662-.662h4.009a.662.662,0,0,1,.662.662V61.184A.662.662,0,0,1,452.02,61.845Zm-3.645-14.972h3.283v14.31a.362.362,0,0,0,.723,0V46.512a.362.362,0,0,0-.362-.362h-4.009a.362.362,0,0,0-.362.362V61.184a.366.366,0,0,0,.364.362.362.362,0,0,0,.362-.362Z" transform="translate(-444.83 -46)" fill="#78de32"/>
        <path id="a-5" data-name="a" d="M291.813,159.143c.162,0,.321-.008.484-.02a5.631,5.631,0,0,0,2.542-.849,5.073,5.073,0,0,0,1.687-1.765,4.549,4.549,0,0,0,.59-2.476,4.609,4.609,0,0,0-.814-2.384,5.2,5.2,0,0,0-1.8-1.6.647.647,0,0,0-.814.161.475.475,0,0,0,.186.706,4.094,4.094,0,0,1,1.413,1.261,3.709,3.709,0,0,1,.649,1.906,3.637,3.637,0,0,1-.472,1.983,4,4,0,0,1-1.327,1.392,4.289,4.289,0,0,1-1.952.655,4.388,4.388,0,0,1-2.132-.353,4.141,4.141,0,0,1-1.545-1.179,3.746,3.746,0,0,1-.787-1.8,3.636,3.636,0,0,1,.3-2.044,3.9,3.9,0,0,1,1.194-1.474,6.315,6.315,0,0,1,.572-.381.472.472,0,0,0,.168-.709.647.647,0,0,0-.817-.146,8.094,8.094,0,0,0-.7.468,4.976,4.976,0,0,0-1.513,1.865,4.545,4.545,0,0,0-.375,2.551,4.664,4.664,0,0,0,.988,2.256,5.22,5.22,0,0,0,1.979,1.507A5.829,5.829,0,0,0,291.813,159.143Zm4.689-20.52h2.368a.517.517,0,1,0,0-1.023H296.5a.517.517,0,1,0,0,1.023Zm0,2.018h1.186a.517.517,0,1,0,0-1.023H296.5a.517.517,0,1,0,0,1.023Zm0,2.019h2.368a.517.517,0,1,0,0-1.023H296.5a.517.517,0,1,0,0,1.023Zm0,2.018h1.186a.517.517,0,1,0,0-1.023H296.5a.517.517,0,1,0,0,1.023Zm0,2.018h2.368a.517.517,0,1,0,0-1.023H296.5a.517.517,0,1,0,0,1.023Z" transform="translate(-286.5 -135.257)" fill="#78de32"/>
        <path id="a-6" data-name="a" d="M291.813,159.293a6.019,6.019,0,0,1-2.36-.486,5.37,5.37,0,0,1-2.037-1.551,4.813,4.813,0,0,1-1.019-2.329,4.693,4.693,0,0,1,.387-2.635,5.129,5.129,0,0,1,1.558-1.922,8.193,8.193,0,0,1,.717-.479.8.8,0,0,1,.4-.1.77.77,0,0,1,.613.289.6.6,0,0,1,.117.489.668.668,0,0,1-.329.441,6.143,6.143,0,0,0-.555.37,3.747,3.747,0,0,0-1.15,1.417,3.488,3.488,0,0,0-.286,1.96,3.6,3.6,0,0,0,.756,1.726,3.988,3.988,0,0,0,1.489,1.136,4.272,4.272,0,0,0,2.059.341,4.139,4.139,0,0,0,1.884-.632,3.848,3.848,0,0,0,1.277-1.339,3.488,3.488,0,0,0,.453-1.9,3.564,3.564,0,0,0-.623-1.829,3.95,3.95,0,0,0-1.361-1.214.673.673,0,0,1-.34-.436.6.6,0,0,1,.1-.49.767.767,0,0,1,.623-.3.806.806,0,0,1,.384.1,5.352,5.352,0,0,1,1.851,1.651,4.752,4.752,0,0,1,.84,2.462,4.7,4.7,0,0,1-.609,2.557,5.22,5.22,0,0,1-1.737,1.818,5.782,5.782,0,0,1-2.61.872C292.13,159.287,291.967,159.293,291.813,159.293Zm-2.355-9.2a.5.5,0,0,0-.248.065,7.968,7.968,0,0,0-.686.457,4.829,4.829,0,0,0-1.468,1.809,4.394,4.394,0,0,0-.362,2.467,4.513,4.513,0,0,0,.957,2.184,5.068,5.068,0,0,0,1.922,1.463,5.716,5.716,0,0,0,2.24.461c.147,0,.3-.007.472-.02a5.48,5.48,0,0,0,2.473-.826,4.919,4.919,0,0,0,1.637-1.712,4.4,4.4,0,0,0,.571-2.4,4.453,4.453,0,0,0-.788-2.307,5.05,5.05,0,0,0-1.747-1.557.505.505,0,0,0-.241-.06.473.473,0,0,0-.38.178.3.3,0,0,0-.054.248.368.368,0,0,0,.191.238,4.251,4.251,0,0,1,1.464,1.307,3.864,3.864,0,0,1,.675,1.983,3.788,3.788,0,0,1-.491,2.064,4.148,4.148,0,0,1-1.377,1.444,4.441,4.441,0,0,1-2.021.678,4.572,4.572,0,0,1-2.205-.365,4.29,4.29,0,0,1-1.6-1.222,3.9,3.9,0,0,1-.819-1.871,3.787,3.787,0,0,1,.31-2.128,4.047,4.047,0,0,1,1.24-1.531,6.509,6.509,0,0,1,.588-.392.363.363,0,0,0,.184-.24.3.3,0,0,0-.061-.247A.469.469,0,0,0,289.458,150.089Zm9.412-3.241H296.5a.666.666,0,1,1,0-1.323h2.368a.666.666,0,1,1,0,1.323Zm-2.368-1.023a.412.412,0,0,0-.44.362.407.407,0,0,0,.44.362h2.368a.407.407,0,0,0,.44-.362.412.412,0,0,0-.44-.362Zm1.186-1H296.5a.666.666,0,1,1,0-1.323h1.186a.666.666,0,1,1,0,1.323Zm-1.186-1.023a.369.369,0,1,0,0,.723h1.186a.369.369,0,1,0,0-.723Zm2.368-1H296.5a.666.666,0,1,1,0-1.323h2.368a.666.666,0,1,1,0,1.323Zm-2.368-1.023a.369.369,0,1,0,0,.723h2.368a.369.369,0,1,0,0-.723Zm1.186-1H296.5a.666.666,0,1,1,0-1.323h1.186a.666.666,0,1,1,0,1.323Zm-1.186-1.023a.369.369,0,1,0,0,.723h1.186a.369.369,0,1,0,0-.723Zm2.368-1H296.5a.666.666,0,1,1,0-1.323h2.368a.666.666,0,1,1,0,1.323ZM296.5,137.75a.369.369,0,1,0,0,.723h2.368a.369.369,0,1,0,0-.723Z" transform="translate(-286.5 -135.257)" fill="#78de32"/>
        <path id="a-7" data-name="a" d="M528.312,145.853a.513.513,0,0,0,.512-.512v-16.33a.512.512,0,0,0-1.023,0v16.33A.513.513,0,0,0,528.312,145.853Z" transform="translate(-523.074 -126.389)" fill="#78de32"/>
        <path id="a-8" data-name="a" d="M528.312,146a.662.662,0,0,1-.662-.662v-16.33a.662.662,0,0,1,1.323,0v16.33A.662.662,0,0,1,528.312,146Zm0-17.353a.362.362,0,0,0-.362.362v16.33a.362.362,0,1,0,.723,0v-16.33A.362.362,0,0,0,528.312,128.65Z" transform="translate(-523.074 -126.389)" fill="#78de32"/>
      </g>
      <path id="a-9" data-name="a" d="M2,.6A1.4,1.4,0,0,0,.6,2V34A1.4,1.4,0,0,0,2,35.4H34A1.4,1.4,0,0,0,35.4,34V2A1.4,1.4,0,0,0,34,.6H2M2,0H34a2,2,0,0,1,2,2V34a2,2,0,0,1-2,2H2a2,2,0,0,1-2-2V2A2,2,0,0,1,2,0Z" transform="translate(6426 1599)" fill="#78de32"/>
    </g>
  </g>
</svg>
