<svg t="1695361938097" class="icon" viewBox="0 0 1024 1024" version="1.1" xmlns="http://www.w3.org/2000/svg" p-id="4468" width="28" height="28"><path d="M675.84 113.78688a81.92 81.92 0 0 1 81.92 81.92v81.87904h81.92a40.96 40.96 0 0 1 0 81.92h-20.48v491.52a81.92 81.92 0 0 1-81.92 81.92h-450.56a81.92 81.92 0 0 1-81.92-81.92v-491.52H184.32a40.96 40.96 0 1 1 0-81.92h81.92v-81.92a81.92 81.92 0 0 1 81.92-81.92h327.68z m61.44 245.76h-450.56v491.52h450.56v-491.52z m-307.2 122.88a40.96 40.96 0 0 1 40.96 40.96v163.84a40.96 40.96 0 0 1-81.92 0v-163.84a40.96 40.96 0 0 1 40.96-40.96z m163.84 0a40.96 40.96 0 0 1 40.96 40.96v163.84a40.96 40.96 0 0 1-81.92 0v-163.84a40.96 40.96 0 0 1 40.96-40.96z m81.92-286.72H348.16v81.87904h327.68v-81.92z" fill="#ffffff" p-id="4469"></path></svg>