<svg t="1692173309424" class="icon" viewBox="0 0 1024 1024" version="1.1" xmlns="http://www.w3.org/2000/svg" p-id="4952" width="28" height="28"><path d="M128 498.752a32 32 0 0 1 32 32v288h704v-288a32 32 0 0 1 32-32h32a32 32 0 0 1 32 32v352a32 32 0 0 1-32 32h-832a32 32 0 0 1-32-32v-352a32 32 0 0 1 32-32H128z m608 128a32 32 0 0 1 32 32v32a32 32 0 0 1-32 32h-448a32 32 0 0 1-32-32v-32a32 32 0 0 1 32-32h448zM504.128 130.304h15.744c13.184 0 18.56 1.472 23.744 4.224a29.056 29.056 0 0 1 12.16 12.16 36.352 36.352 0 0 1 4.032 16.64l0.192 7.04v239.616l132.992-132.992a32 32 0 0 1 45.312 0l22.592 22.656a32 32 0 0 1 0 45.248L534.656 571.2a32 32 0 0 1-45.312 0L263.104 344.896a32 32 0 0 1 0-45.248l22.592-22.656a32 32 0 0 1 45.312 0l132.992 133.12V170.432c0-13.248 1.472-18.56 4.288-23.808a29.056 29.056 0 0 1 12.096-12.096 36.352 36.352 0 0 1 16.704-4.096l7.04-0.128h15.744z" fill="#ffffff" p-id="4953"></path></svg>