<svg xmlns="http://www.w3.org/2000/svg" width="40" height="40" viewBox="0 0 47 47">
  <g id="g-1" transform="translate(-1210 -135)">
    <g id="a" transform="translate(1210 135)" fill="#fff" stroke="#193540" stroke-width="0.4">
      <rect width="47" height="47" rx="2" stroke="none"/>
      <rect x="0.2" y="0.2" width="46.6" height="46.6" rx="1.8" fill="none"/>
    </g>
    <path id="a-2" data-name="a" d="M82.44,47.892V57a1.346,1.346,0,1,1-2.692,0V51.14L69.342,61.546a1.346,1.346,0,0,1-1.9-1.9l10.4-10.4H71.99a1.346,1.346,0,1,1,0-2.692h9.1A1.346,1.346,0,0,1,82.44,47.892Zm-22.8,19.547L49.238,77.844V71.986a1.346,1.346,0,0,0-2.692,0v9.107a1.346,1.346,0,0,0,1.346,1.346H57a1.346,1.346,0,1,0,0-2.692H51.142L61.55,69.341a1.346,1.346,0,1,0-1.9-1.9Zm-8.5-18.2H57a1.346,1.346,0,0,0,0-2.692H47.892a1.346,1.346,0,0,0-1.346,1.346V57a1.346,1.346,0,1,0,2.692,0V51.14L59.645,61.546a1.346,1.346,0,1,0,1.9-1.9Zm29.953,21.4a1.346,1.346,0,0,0-1.346,1.346v5.858L69.342,67.438a1.346,1.346,0,0,0-1.9,1.9L77.844,79.75H71.99a1.346,1.346,0,1,0,0,2.69h9.1a1.346,1.346,0,0,0,1.346-1.346V71.988a1.346,1.346,0,0,0-1.346-1.346Z" transform="translate(1169.036 93.977)" fill="#193540"/>
  </g>
</svg>
