<svg xmlns="http://www.w3.org/2000/svg" width="40" height="40" viewBox="0 0 47 47">
  <g id="g" transform="translate(-1841 -132)">
    <g id="a" transform="translate(631 -3)">
      <g id="a-2" data-name="a" transform="translate(1210 135)" fill="#fff" stroke="#193540" stroke-width="0.4">
        <rect width="47" height="47" rx="2" stroke="none"/>
        <rect x="0.2" y="0.2" width="46.6" height="46.6" rx="1.8" fill="none"/>
      </g>
    </g>
    <path id="a-3" data-name="a" d="M101.447,107.131a1.21,1.21,0,0,1,.029,2.42H93.262l10.129,10.129a1.21,1.21,0,0,1-1.689,1.734l-.023-.022L91.551,111.262v8.143a1.21,1.21,0,0,1-1.182,1.21h-.029a1.21,1.21,0,0,1-1.21-1.182v-12.3Zm-18.6,0v12.3a1.21,1.21,0,0,1-2.42.029v-8.326l-9.789,9.831a1.21,1.21,0,0,1-1.737-1.685l.022-.023,9.662-9.7H70.513a1.21,1.21,0,0,1-1.21-1.182v-.029a1.21,1.21,0,0,1,1.182-1.21H82.843Zm20.546-20.778a1.21,1.21,0,0,1,.026,1.689l-.022.023-9.938,9.98h7.985a1.21,1.21,0,0,1,1.21,1.182v.029a1.21,1.21,0,0,1-1.182,1.21H89.13V88.141a1.21,1.21,0,0,1,2.42-.029v8.413l10.127-10.17a1.21,1.21,0,0,1,1.711,0ZM70.02,86.311l.023.021.023.022L80.421,96.71V88.141a1.21,1.21,0,0,1,1.182-1.21h.029a1.21,1.21,0,0,1,1.21,1.182v12.331H70.513a1.21,1.21,0,0,1-.029-2.42h7.827l-9.957-9.957a1.21,1.21,0,0,1,1.665-1.755Z" transform="translate(1779 52)" fill="#193540"/>
  </g>
</svg>
