<svg xmlns="http://www.w3.org/2000/svg" width="36" height="36" viewBox="0 0 36 36">
  <g id="Heart_Rate" data-name="Heart Rate" transform="translate(-6495.099 -1768)">
    <path id="z" d="M100.95,117.333c4.426,0,7.263,3.549,7.263,8.326,0,3.707-3.354,7.789-9.962,12.376a2.594,2.594,0,0,1-2.954,0c-6.608-4.587-9.962-8.669-9.962-12.376,0-4.777,2.837-8.326,7.263-8.326a5.96,5.96,0,0,1,4.177,1.826A5.961,5.961,0,0,1,100.95,117.333Zm0,1.693c-1.111,0-1.884.407-3.136,1.476l-.481.412a.867.867,0,0,1-1.12,0l-.481-.412c-1.252-1.068-2.025-1.476-3.136-1.476-3.379,0-5.547,2.7-5.547,6.6,0,2.973,3.044,6.664,9.231,10.942a.867.867,0,0,0,.985,0c6.187-4.278,9.231-7.969,9.231-10.942C106.5,121.728,104.329,119.026,100.95,119.026Z" transform="translate(6416.766 1657.667)" fill="#68c724"/>
    <path id="a" d="M2,.6A1.4,1.4,0,0,0,.6,2V34A1.4,1.4,0,0,0,2,35.4H34A1.4,1.4,0,0,0,35.4,34V2A1.4,1.4,0,0,0,34,.6H2M2,0H34a2,2,0,0,1,2,2V34a2,2,0,0,1-2,2H2a2,2,0,0,1-2-2V2A2,2,0,0,1,2,0Z" transform="translate(6495.099 1768)" fill="#78de32"/>
  </g>
</svg>
