<svg xmlns="http://www.w3.org/2000/svg" width="33.048" height="28.407" viewBox="0 0 33.048 28.407">
  <path id="legend-1" d="M95.576,160.2l6.408,4.476a1.1,1.1,0,0,0,1.767-.875v-9.051a1.209,1.209,0,0,0-.215-.661,1.12,1.12,0,0,0-1.552-.215l-6.408,4.476A1.249,1.249,0,0,0,95.576,160.2Zm.892-12.486h30.389a1.321,1.321,0,0,0,0-2.643H96.468a1.321,1.321,0,0,0,0,2.643Zm0,25.765h30.389a1.321,1.321,0,0,0,0-2.643H96.468a1.321,1.321,0,0,0,0,2.643ZM107.7,156.3h19.158a1.321,1.321,0,0,0,0-2.643H107.7a1.321,1.321,0,1,0,0,2.643Zm0,8.588h19.175a1.321,1.321,0,0,0,0-2.643H107.7a1.325,1.325,0,0,0-1.321,1.321v.017A1.322,1.322,0,0,0,107.7,164.886Z" transform="translate(-95.146 -145.067)" fill="#fff"/>
</svg>
