<svg xmlns="http://www.w3.org/2000/svg" width="33.048" height="28.407" viewBox="0 0 33.048 28.407">
  <path id="legend" d="M127.766,160.2l-6.408,4.476a1.1,1.1,0,0,1-1.767-.875v-9.051a1.209,1.209,0,0,1,.215-.661,1.12,1.12,0,0,1,1.552-.215l6.408,4.476A1.249,1.249,0,0,1,127.766,160.2Zm-.892-12.486H96.484a1.321,1.321,0,0,1,0-2.643h30.389a1.321,1.321,0,0,1,0,2.643Zm0,25.765H96.484a1.321,1.321,0,0,1,0-2.643h30.389a1.321,1.321,0,0,1,0,2.643ZM115.643,156.3H96.484a1.321,1.321,0,0,1,0-2.643h19.158a1.321,1.321,0,1,1,0,2.643Zm0,8.588H96.468a1.321,1.321,0,0,1,0-2.643h19.175a1.325,1.325,0,0,1,1.321,1.321v.017A1.322,1.322,0,0,1,115.643,164.886Z" transform="translate(-95.146 -145.067)" fill="#fff"/>
</svg>
