<svg xmlns="http://www.w3.org/2000/svg" width="20" height="20" viewBox="0 0 28.736 28.737">
  <path id="magnify" d="M75.281,47.623v7.289a1.078,1.078,0,0,1-2.155,0V50.224L64.8,58.554a1.077,1.077,0,0,1-1.523-1.524L71.6,48.7H66.915a1.078,1.078,0,1,1,0-2.155H74.2A1.078,1.078,0,0,1,75.281,47.623ZM57.033,63.271,48.7,71.6v-4.69a1.078,1.078,0,0,0-2.155,0V74.2a1.078,1.078,0,0,0,1.078,1.078h7.29a1.078,1.078,0,1,0,0-2.155H50.225l8.332-8.332a1.078,1.078,0,1,0-1.525-1.523ZM50.225,48.7h4.69a1.078,1.078,0,1,0,0-2.155h-7.29a1.078,1.078,0,0,0-1.078,1.078v7.289a1.078,1.078,0,0,0,2.155,0V50.224l8.332,8.331a1.077,1.077,0,0,0,1.523-1.524ZM74.2,65.836a1.078,1.078,0,0,0-1.078,1.078V71.6L64.8,63.271A1.078,1.078,0,0,0,63.271,64.8L71.6,73.128H66.915a1.078,1.078,0,1,0,0,2.154H74.2A1.078,1.078,0,0,0,75.281,74.2v-7.29A1.078,1.078,0,0,0,74.2,65.836Z" transform="translate(-46.545 -46.545)" fill="#d9d9d9"/>
</svg>
