<svg xmlns="http://www.w3.org/2000/svg" width="28.291" height="28.291" viewBox="0 0 28.291 28.291">
  <g id="MANAGEMENT" transform="translate(-23.23 -14.691)">
    <path id="a" d="M33.6,81.013h-9.43a.943.943,0,0,0-.943.943v9.982a.943.943,0,0,0,.943.943H33.6a.943.943,0,0,0,.943-.943V81.956a.943.943,0,0,0-.943-.943Zm-.943,9.981H25.116V82.9H32.66v8.095Z" transform="translate(0 -64.436)" fill="#78de32"/>
    <path id="a-2" data-name="a" d="M33.6,611.518h-9.43a.943.943,0,0,0-.943.942v9.431a.942.942,0,0,0,.943.942H33.6a.943.943,0,0,0,.943-.942V612.46a.942.942,0,0,0-.943-.942Zm-.943,9.43H25.116V613.4H32.66v7.544Z" transform="translate(0 -579.852)" fill="#78de32"/>
    <path id="a-3" data-name="a" d="M564.094,611.518h-9.431a.942.942,0,0,0-.942.942v9.431a.942.942,0,0,0,.942.942h9.431a.943.943,0,0,0,.944-.942V612.46a.943.943,0,0,0-.944-.942Zm-.942,9.43h-7.544V613.4h7.544v7.544Z" transform="translate(-515.402 -579.852)" fill="#78de32"/>
    <path id="a-4" data-name="a" d="M497.649,21.635l-6.669-6.668a.943.943,0,0,0-1.333,0l-6.668,6.668a.943.943,0,0,0,0,1.334l6.668,6.668a.943.943,0,0,0,1.333,0l6.669-6.668a.944.944,0,0,0,0-1.333Zm-7.336,6L484.979,22.3l5.334-5.334,5.335,5.334-5.335,5.334Z" transform="translate(-446.404)" fill="#78de32"/>
  </g>
</svg>
