<svg xmlns="http://www.w3.org/2000/svg" width="65.322" height="65.317" viewBox="0 0 65.322 65.317">
  <g id="start" transform="translate(-75.776 -75.776)">
    <path id="a" d="M212.992,526.336Z" transform="translate(-126.895 -416.669)" fill="#549d26"/>
    <path id="a-2" data-name="a" d="M131.542,85.327h0a32.488,32.488,0,0,0-23.108-9.551,32.863,32.863,0,0,0-23.108,9.551h0a32.728,32.728,0,0,0,0,46.215,32.222,32.222,0,0,0,23.108,9.551,32.589,32.589,0,0,0,23.108-9.551,31.96,31.96,0,0,0,9.551-23.108A31.359,31.359,0,0,0,131.542,85.327ZM128,128a27.709,27.709,0,0,1-19.564,8.165A27.08,27.08,0,0,1,88.87,128a27.709,27.709,0,0,1-8.165-19.564A27.08,27.08,0,0,1,88.87,88.87a28.271,28.271,0,0,1,19.564-8.165,27.487,27.487,0,0,1,19.41,8.011l.154.154a27.709,27.709,0,0,1,8.165,19.564A27.08,27.08,0,0,1,128,128Z" fill="#549d26"/>
    <path id="a-3" data-name="a" d="M341.463,246.068l15.251,8.781,15.251,8.781a2.244,2.244,0,0,1,.77,3.081l-.924.924-15.251,8.781h0L341.309,285.2a2.244,2.244,0,0,1-3.081-.77,3.625,3.625,0,0,1-.308-1.232V265.632h0V247.917a2.106,2.106,0,0,1,2.157-2.157,3.076,3.076,0,0,1,1.386.308Z" transform="translate(-242.426 -157.198)" fill="#549d26"/>
  </g>
</svg>
