<svg xmlns="http://www.w3.org/2000/svg" width="28" height="28" viewBox="0 0 36.626 36.626">
  <path id="submit" d="M16.489,28.1a1.712,1.712,0,0,1-1.215-.5L8.206,20.526a1.718,1.718,0,1,1,2.43-2.43l5.854,5.854L31.442,9a1.718,1.718,0,0,1,2.43,2.43L17.7,27.593a1.712,1.712,0,0,1-1.214.5Zm1.824,8.529A18.313,18.313,0,1,1,28.4,3.023a1.308,1.308,0,1,1-1.442,2.183A15.7,15.7,0,1,0,34.01,18.313a15.9,15.9,0,0,0-.084-1.635,1.308,1.308,0,0,1,2.6-.269,18.563,18.563,0,0,1,.1,1.9A18.334,18.334,0,0,1,18.313,36.626Zm0,0" fill="#fff"/>
</svg>
