<svg t="1693880065351" class="icon" viewBox="0 0 1024 1024" version="1.1" xmlns="http://www.w3.org/2000/svg" p-id="9272" width="22" height="22"><path d="M512 0c-19.2 0-32 6.4-44.8 19.2L288 230.4c-6.4 12.8-12.8 25.6-12.8 44.8 0 32 25.6 64 57.6 64 19.2 0 32-6.4 44.8-19.2l76.8-89.6v416c0 32 25.6 64 57.6 64s57.6-25.6 57.6-64v-416l76.8 89.6c12.8 12.8 25.6 19.2 44.8 19.2 32 0 57.6-25.6 57.6-64 0-19.2-6.4-32-12.8-44.8L556.8 19.2C544 6.4 531.2 0 512 0z m396.8 640v256H115.2V640c0-32-25.6-64-57.6-64S0 608 0 640v320c0 32 25.6 64 57.6 64h908.8c32 0 57.6-25.6 57.6-64V640c0-32-25.6-64-57.6-64s-57.6 32-57.6 64z" fill="#ffffff" p-id="9273"></path></svg>