<svg t="1692173751181" class="icon" viewBox="0 0 1024 1024" version="1.1" xmlns="http://www.w3.org/2000/svg" p-id="5716" width="32" height="32"><path d="M613.7344 51.9168a255.488 255.488 0 0 0-255.0784 255.0784 256.2048 256.2048 0 0 0 134.5536 224.8704C326.2976 583.5264 204.8 738.9696 204.8 922.624a24.4736 24.4736 0 1 0 49.0496 0c0-198.2464 161.1776-359.936 357.888-359.936 2.56 0 5.1712 0 7.7824-0.5632 137.728-3.1232 249.344-116.3264 249.344-254.5664 0-140.8512-114.176-255.6416-255.0784-255.6416z m0 461.1584a206.1824 206.1824 0 0 1-206.08-206.08 206.1824 206.1824 0 0 1 206.08-206.0288 206.1824 206.1824 0 0 1 206.08 206.0288c0.512 113.7664-92.3648 206.08-206.08 206.08z m289.536 121.0368a24.576 24.576 0 0 0-34.4064 0 24.576 24.576 0 0 0 0 34.4064 357.1712 357.1712 0 0 1 105.3696 254.1056 24.4736 24.4736 0 1 0 49.0496 0 406.5792 406.5792 0 0 0-120.0128-288.512zM356.5568 519.3216a24.4736 24.4736 0 0 0-24.5248-24.4736c-88.1664 0-160.1536-76.6976-160.1536-171.1104 0-94.464 71.9872-171.1616 160.1536-171.1616a24.4736 24.4736 0 1 0 0-48.9984c-115.3024 0-208.6912 98.56-208.6912 219.648 0 80.2816 41.7792 151.2448 103.3216 189.3376-131.4816 47.4624-226.4064 178.432-226.4064 332.288a24.4736 24.4736 0 1 0 49.0496 0c0-166.4 126.72-301.5168 283.2384-301.5168a23.6032 23.6032 0 0 0 24.0128-24.0128z" fill="#ffffff" p-id="5717"></path></svg>