<svg xmlns="http://www.w3.org/2000/svg" width="24" height="24" viewBox="0 0 30.096 23.648">
  <g id="view_less" data-name="view less" transform="translate(-1626.057 -136)">
    <path id="a" d="M93.963,177.685l0,0,0,0c-1.481-3.134-3.776-4.746-6.829-4.746s-5.348,1.616-6.832,4.746v0a1.442,1.442,0,0,0,0,1.223c1.485,3.131,3.779,4.743,6.832,4.743s5.348-1.616,6.832-4.746A1.439,1.439,0,0,0,93.963,177.685ZM87.127,181.5c-2.086,0-3.608-1.008-4.74-3.208,1.129-2.2,2.654-3.208,4.74-3.208s3.608,1.008,4.74,3.208C90.738,180.49,89.213,181.5,87.127,181.5Zm-1.864-3.191a1.881,1.881,0,1,0,1.881-1.881A1.881,1.881,0,0,0,85.263,178.307ZM66.419,162.419H90.066v8.5h2.419v-9.842A1.074,1.074,0,0,0,91.41,160H65.075A1.074,1.074,0,0,0,64,161.075v17.467a1.074,1.074,0,0,0,1.075,1.075H76.9V177.2H66.419Z" transform="translate(1562.057 -24)" fill="#6dedfd"/>
    <path id="a-2" data-name="a" d="M70.294,165.982l1.236-1.236a.27.27,0,0,1,.38,0l6.174,6.181,2.892-2.9a.27.27,0,0,1,.38,0l4.847,4.847a.27.27,0,0,1,0,.38l-1.236,1.236a.27.27,0,0,1-.38,0l-3.419-3.419-2.892,2.9a.27.27,0,0,1-.38,0l-7.6-7.608A.264.264,0,0,1,70.294,165.982Z" transform="translate(1523.147 -1.032) rotate(-14)" fill="#6dedfd"/>
  </g>
</svg>
